<?xml version="1.0" encoding="UTF-8"?>
<!DOCTYPE svg PUBLIC "-//W3C//DTD SVG 1.1//EN" "http://www.w3.org/Graphics/SVG/1.1/DTD/svg11.dtd">
<!-- Creator: CorelDRAW 2021.5 -->
<svg xmlns="http://www.w3.org/2000/svg" xml:space="preserve" width="372.392mm" height="160.826mm" version="1.1" style="shape-rendering:geometricPrecision; text-rendering:geometricPrecision; image-rendering:optimizeQuality; fill-rule:evenodd; clip-rule:evenodd"
viewBox="0 0 37231.46 16079.22"
 xmlns:xlink="http://www.w3.org/1999/xlink"
 xmlns:xodm="http://www.corel.com/coreldraw/odm/2003">
 <defs>
  <style type="text/css">
   <![CDATA[
    .str10 {stroke:#FDD999;stroke-width:30.86;stroke-miterlimit:22.9256;stroke-opacity:0.109804}
    .str9 {stroke:#7AF6FD;stroke-width:30.86;stroke-miterlimit:22.9256;stroke-opacity:0.196078}
    .str7 {stroke:#FDC879;stroke-width:30.86;stroke-miterlimit:22.9256;stroke-opacity:0.329412}
    .str8 {stroke:#FDD999;stroke-width:30.86;stroke-miterlimit:22.9256;stroke-opacity:0.329412}
    .str3 {stroke:#FDD999;stroke-width:26.45;stroke-miterlimit:22.9256;stroke-opacity:0.400000}
    .str1 {stroke:#7AF6FD;stroke-width:18.59;stroke-linecap:round;stroke-linejoin:round;stroke-miterlimit:22.9256;stroke-dasharray:37.172284 55.758426;stroke-opacity:0.560784}
    .str6 {stroke:#FDD999;stroke-width:24.89;stroke-miterlimit:22.9256;stroke-opacity:0.639216}
    .str0 {stroke:#FDD999;stroke-width:46;stroke-linecap:round;stroke-linejoin:round;stroke-miterlimit:22.9256;stroke-opacity:0.639216}
    .str4 {stroke:#FDD999;stroke-width:26.45;stroke-miterlimit:22.9256;stroke-opacity:0.800000}
    .str5 {stroke:#FDD999;stroke-width:24.89;stroke-miterlimit:22.9256;stroke-opacity:0.800000}
    .str2 {stroke:#FDC879;stroke-width:18.59;stroke-linecap:round;stroke-linejoin:round;stroke-miterlimit:22.9256;stroke-dasharray:37.172284 55.758426;stroke-opacity:0.800000}
    .fil24 {fill:none}
    .fil23 {fill:none}
    .fil22 {fill:none}
    .fil9 {fill:none}
    .fil4 {fill:none}
    .fil3 {fill:none}
    .fil5 {fill:none}
    .fil11 {fill:#FDC879}
    .fil14 {fill:#FDD999}
    .fil20 {fill:#FDC879;fill-opacity:0.109804}
    .fil25 {fill:#FDCE86;fill-opacity:0.109804}
    .fil19 {fill:#FDC879;fill-opacity:0.149020}
    .fil27 {fill:#FEDDA0;fill-opacity:0.196078}
    .fil0 {fill:#FDD999;fill-opacity:0.200000}
    .fil13 {fill:#6EF7FD;fill-opacity:0.203922}
    .fil7 {fill:#FDD999;fill-opacity:0.250980}
    .fil8 {fill:#FDD999;fill-opacity:0.301961}
    .fil28 {fill:#7AF6FD;fill-opacity:0.329412}
    .fil26 {fill:#FDCE86;fill-opacity:0.329412}
    .fil21 {fill:#FDD999;fill-opacity:0.329412}
    .fil15 {fill:#7AF6FD;fill-opacity:0.349020}
    .fil16 {fill:#FDC879;fill-opacity:0.360784}
    .fil2 {fill:#FDD999;fill-opacity:0.360784}
    .fil12 {fill:#6EF7FD;fill-opacity:0.450980}
    .fil1 {fill:#FDD999;fill-opacity:0.478431}
    .fil10 {fill:#FDC879;fill-opacity:0.501961}
    .fil18 {fill:#889DFE;fill-opacity:0.800000}
    .fil17 {fill:#FDC879;fill-opacity:0.800000}
    .fil6 {fill:#FDD999;fill-opacity:0.800000}
   ]]>
  </style>
 </defs>
 <g id="Layer_x0020_1">
  <metadata id="CorelCorpID_0Corel-Layer"/>
  <g id="_2927443523824">
   <g id="Ant-Design-Pro-3.0">
    <g id="账户密码登录-校验">
     <g id="Group-21">
      <g id="Group-18">
       <path id="Oval-11" class="fil0" d="M2281.93 14457.64c-38.75,-315.62 -326.23,-540.04 -642.09,-501.26 -315.86,38.78 -540.52,326.08 -501.77,641.71 38.76,315.62 326.23,540.04 642.1,501.26 315.86,-38.78 540.51,-326.08 501.76,-641.71z"/>
       <path id="Oval-3" class="fil1" d="M275.02 14208.29c-9.29,-75.59 -78.13,-129.34 -153.79,-120.05 -75.66,9.29 -129.46,78.09 -120.19,153.69 9.29,75.59 78.13,129.34 153.79,120.06 75.66,-9.29 129.46,-78.09 120.19,-153.7z"/>
       <path id="Oval-3-Copy" class="fil2" d="M1222.23 16077.13c151.32,-18.58 258.93,-156.21 240.36,-307.4 -18.56,-151.19 -156.27,-258.7 -307.59,-240.12 -151.31,18.58 -258.92,156.21 -240.35,307.4 18.56,151.2 156.27,258.7 307.58,240.12z"/>
       <line id="Path-12" class="fil3 str0" x1="1730.71" y1="14544.03" x2="3118.84" y2= "13931.04" />
       <line id="Path-16" class="fil4 str1" x1="1128.06" y1="14440.25" x2="185.56" y2= "14237.86" />
       <line id="Path-15" class="fil5 str2" x1="1722.62" y1="14554.38" x2="1306.26" y2= "15559.72" />
       <g id="Group-17">
        <path id="Oval-4" class="fil2" d="M3522.66 13916.13c52.1,-122.75 -5.25,-264.53 -128.09,-316.67 -122.84,-52.14 -264.67,5.09 -316.77,127.84 -52.1,122.74 5.25,264.53 128.09,316.66 122.84,52.15 264.67,-5.09 316.77,-127.83z"/>
        <path id="Oval-4_0" class="fil6" d="M3077.79 13727.29c-52.11,122.75 5.24,264.54 128.08,316.68 122.84,52.14 264.68,-5.1 316.77,-127.84l-444.86 -188.84z"/>
       </g>
      </g>
      <g id="Group-14">
       <path id="Oval-2" class="fil7" d="M4156.77 1580.86c-37.1,-424.1 -410.71,-737.85 -834.49,-700.77 -423.77,37.07 -737.24,410.93 -700.12,835.04 37.1,424.1 410.71,737.86 834.49,700.77 423.77,-37.07 737.23,-410.93 700.12,-835.04z"/>
       <path id="Oval-2_1" class="fil8" d="M3957.84 1598.27c-27.48,-314.15 -304.24,-546.56 -618.14,-519.09 -313.9,27.46 -546.11,304.39 -518.61,618.54 27.48,314.15 304.24,546.56 618.14,519.09 313.9,-27.46 546.1,-304.39 518.61,-618.54z"/>
       <path id="Oval-2-Copy" class="fil9 str3" d="M8216.22 4120.24c-30.23,-345.57 -334.65,-601.22 -679.95,-571 -345.3,30.21 -600.71,334.83 -570.47,680.4 30.23,345.57 334.65,601.21 679.95,571 345.3,-30.21 600.71,-334.83 570.47,-680.4z"/>
       <path id="Oval-2_2" class="fil10" d="M3673.65 1623.13c-13.75,-157.07 -152.12,-273.27 -309.07,-259.55 -156.95,13.74 -273.04,152.2 -259.31,309.27 13.74,157.07 152.12,273.27 309.07,259.55 156.95,-13.73 273.04,-152.2 259.31,-309.27z"/>
       <path id="Oval-2_3" class="fil11" d="M3414.34 1932.41l-49.77 -568.82c-156.95,13.73 -273.04,152.2 -259.31,309.27 13.75,157.08 152.12,273.28 309.08,259.56z"/>
       <g id="Group-9">
        <path id="Oval-2-Copy-2" class="fil12" d="M7761.53 4160.03c-8.25,-94.24 -91.27,-163.97 -185.44,-155.73 -94.17,8.24 -163.83,91.32 -155.59,185.56 8.25,94.24 91.27,163.97 185.45,155.73 94.17,-8.24 163.83,-91.32 155.58,-185.56z"/>
        <path id="Oval-2-Copy-2_4" class="fil13" d="M7605.95 4345.59c-94.18,8.24 -177.2,-61.49 -185.45,-155.73 -8.24,-94.25 61.42,-177.32 155.59,-185.56l29.86 341.29z"/>
       </g>
       <ellipse id="Oval-10" class="fil14" transform="matrix(0.996195 -0.0871557 0.0871557 0.996195 8629.56 4098.41)" rx="42.79" ry="42.82"/>
       <path id="Oval-10-Copy-2" class="fil15" d="M7733.7 5151.19c-2.07,-23.56 -22.82,-40.99 -46.36,-38.93 -23.55,2.06 -40.96,22.84 -38.9,46.39 2.06,23.56 22.82,40.98 46.36,38.92 23.55,-2.06 40.96,-22.83 38.9,-46.38z"/>
       <path id="Oval-10-Copy" class="fil15" d="M7594.15 3228.92c-2.75,-31.41 -30.42,-54.65 -61.81,-51.91 -31.38,2.75 -54.6,30.44 -51.85,61.86 2.75,31.41 30.42,54.66 61.81,51.91 31.38,-2.75 54.6,-30.44 51.85,-61.86z"/>
       <line id="Path-11" class="fil5 str4" x1="3388.23" y1="1670.06" x2="7371.51" y2= "4054.2" />
      </g>
      <g id="Group-10">
       <path id="Oval-7" class="fil5 str5" d="M28534.18 583.82c-31.48,-161.97 -187.06,-267.99 -347.48,-236.81 -160.43,31.18 -264.96,187.77 -233.47,349.74 31.48,161.97 187.05,267.98 347.48,236.8 160.43,-31.18 264.96,-187.76 233.47,-349.73z"/>
       <g id="Group-12">
        <path id="Oval-7_5" class="fil16" d="M28462.93 597.67c-23.85,-122.7 -141.71,-203.02 -263.24,-179.4 -121.53,23.63 -200.72,142.25 -176.87,264.96 23.86,122.7 141.71,203.02 263.25,179.4 121.52,-23.63 200.72,-142.25 176.86,-264.96z"/>
        <path id="Oval-7_6" class="fil17" d="M28286.07 862.62c121.53,-23.63 200.73,-142.25 176.87,-264.96 -23.86,-122.7 -141.71,-203.02 -263.25,-179.4l86.37 444.36z"/>
       </g>
       <line id="Path-2" class="fil5 str5" x1="27969.71" y1="499.78" x2="27117" y2= "125.46" />
       <path id="Oval" class="fil5 str5" d="M27130.55 83.09c-9.18,-47.24 -54.56,-78.16 -101.34,-69.07 -46.79,9.1 -77.27,54.76 -68.1,102 9.18,47.24 54.56,78.15 101.34,69.07 46.79,-9.1 77.27,-54.77 68.1,-102z"/>
       <path id="Oval-Copy" class="fil18" d="M27398.5 1590.82c-7.87,-40.5 -46.76,-67 -86.86,-59.2 -40.1,7.79 -66.24,46.93 -58.37,87.42 7.87,40.49 46.76,67 86.86,59.2 40.1,-7.79 66.24,-46.93 58.37,-87.42z"/>
       <line id="Path-10" class="fil3 str6" x1="28042.07" y1="875.99" x2="27377.73" y2= "1557.37" />
      </g>
      <g id="Group-19">
       <g id="Group-17_7">
        <path id="Oval-4_8" class="fil19" d="M33796.12 10882.48c-169.79,14.85 -295.4,164.54 -280.55,334.33 14.86,169.79 164.55,295.4 334.34,280.55 169.79,-14.86 295.4,-164.55 280.55,-334.34 -14.86,-169.79 -164.55,-295.4 -334.34,-280.54z"/>
        <path id="Oval-4_9" class="fil20" d="M33849.91 11497.35c169.79,-14.86 295.4,-164.55 280.54,-334.34 -14.85,-169.79 -164.54,-295.4 -334.34,-280.54l53.8 614.88z"/>
       </g>
       <path id="Oval-5-Copy-6" class="fil21" d="M35480.97 10432.72c-14.8,-83.93 -94.83,-139.97 -178.76,-125.17 -83.92,14.8 -139.96,94.83 -125.16,178.76 14.8,83.92 94.83,139.96 178.75,125.16 83.93,-14.8 139.97,-94.83 125.17,-178.75z"/>
       <line id="Path-17" class="fil22 str7" x1="33815.4" y1="10761.67" x2="33789.73" y2= "8853.46" />
       <line id="Path-18" class="fil22 str7" x1="30296.51" y1="9999.36" x2="33438.28" y2= "11065.41" />
       <polyline id="Path-19" class="fil22 str8" points="33970.54,11580.16 35290.08,14336.27 31349.67,12773.13 33470.22,11414.03 "/>
       <line id="Path-20" class="fil23 str9" x1="34291.12" y1="10971.45" x2="35169.89" y2= "10534.58" />
       <line id="Path-24" class="fil22 str7" x1="35395.55" y1="10303.73" x2="36054.13" y2= "8952.8" />
       <line id="Path-25" class="fil24 str10" x1="37224.93" y1="11326.76" x2="35479.18" y2= "10511.39" />
       <path id="Oval-5" class="fil25" d="M34025.1 8574.14c-22.2,-125.89 -142.25,-209.96 -268.13,-187.75 -125.89,22.2 -209.96,142.24 -187.76,268.13 22.21,125.89 142.25,209.95 268.14,187.75 125.89,-22.2 209.95,-142.25 187.75,-268.13z"/>
       <path id="Oval-5-Copy-3" class="fil26" d="M31507.32 12778.61c-13.32,-75.52 -85.34,-125.96 -160.88,-112.65 -75.52,13.32 -125.96,85.35 -112.65,160.88 13.32,75.53 85.35,125.96 160.88,112.65 75.53,-13.32 125.96,-85.34 112.65,-160.88z"/>
       <path id="Oval-5-Copy-2" class="fil27" d="M30277.75 9892.99c-22.2,-125.88 -142.25,-209.95 -268.13,-187.75 -125.89,22.2 -209.96,142.25 -187.75,268.14 22.2,125.88 142.24,209.95 268.13,187.75 125.89,-22.21 209.95,-142.25 187.75,-268.14z"/>
       <path id="Oval-5-Copy-4" class="fil27" d="M36312.52 8750.55c-14.8,-83.93 -94.83,-139.97 -178.76,-125.17 -83.92,14.81 -139.96,94.83 -125.16,178.76 14.8,83.92 94.83,139.97 178.75,125.16 83.93,-14.8 139.97,-94.83 125.17,-178.75z"/>
       <path id="Oval-5-Copy-5" class="fil28" d="M35449.14 14339.88c-13.32,-75.53 -85.35,-125.96 -160.88,-112.65 -75.53,13.32 -125.96,85.34 -112.65,160.88 13.32,75.52 85.34,125.96 160.88,112.65 75.52,-13.32 125.96,-85.35 112.65,-160.88z"/>
      </g>
     </g>
    </g>
   </g>
  </g>
 </g>
</svg>
